<svg xmlns="http://www.w3.org/2000/svg" xmlns:xlink="http://www.w3.org/1999/xlink" width="1920" zoomAndPan="magnify" viewBox="0 0 1440 1439.999935" height="1920" preserveAspectRatio="xMidYMid meet" version="1.0"><defs><clipPath id="5560e96803"><path d="M 195 10 L 1440 10 L 1440 730 L 195 730 Z M 195 10 " clip-rule="nonzero"/></clipPath><clipPath id="08e32b6932"><path d="M -62.382812 148.578125 L 1351.824219 -122.730469 L 1617.625 1262.753906 L 203.414062 1534.0625 Z M -62.382812 148.578125 " clip-rule="nonzero"/></clipPath><clipPath id="44832b7726"><path d="M -62.382812 148.578125 L 1351.824219 -122.730469 L 1617.625 1262.753906 L 203.414062 1534.0625 Z M -62.382812 148.578125 " clip-rule="nonzero"/></clipPath><clipPath id="6e760ebe00"><path d="M 0 230 L 510 230 L 510 1301 L 0 1301 Z M 0 230 " clip-rule="nonzero"/></clipPath><clipPath id="8d6c70699e"><path d="M -62.382812 148.578125 L 1351.824219 -122.730469 L 1617.625 1262.753906 L 203.414062 1534.0625 Z M -62.382812 148.578125 " clip-rule="nonzero"/></clipPath><clipPath id="3a663a91cc"><path d="M -62.382812 148.578125 L 1351.824219 -122.730469 L 1617.625 1262.753906 L 203.414062 1534.0625 Z M -62.382812 148.578125 " clip-rule="nonzero"/></clipPath><clipPath id="1a0a7b87de"><path d="M 445 650 L 1380 650 L 1380 1435 L 445 1435 Z M 445 650 " clip-rule="nonzero"/></clipPath><clipPath id="76eccaced9"><path d="M -62.382812 148.578125 L 1351.824219 -122.730469 L 1617.625 1262.753906 L 203.414062 1534.0625 Z M -62.382812 148.578125 " clip-rule="nonzero"/></clipPath><clipPath id="c5da3a41d0"><path d="M -62.382812 148.578125 L 1351.824219 -122.730469 L 1617.625 1262.753906 L 203.414062 1534.0625 Z M -62.382812 148.578125 " clip-rule="nonzero"/></clipPath><clipPath id="79f88ad22d"><path d="M 625 480 L 819 480 L 819 930.707031 L 625 930.707031 Z M 625 480 " clip-rule="nonzero"/></clipPath></defs><g clip-path="url(#5560e96803)"><g clip-path="url(#08e32b6932)"><g clip-path="url(#44832b7726)"><path fill="#7b3cb9" d="M 1405.410156 367.824219 L 1314.601562 387.507812 C 1188.136719 122.65625 894.46875 -34.953125 593.078125 22.863281 C 429.066406 54.328125 290.796875 144.203125 195.671875 266.78125 L 322.429688 201.542969 C 346.878906 188.964844 365.839844 201.148438 364.503906 228.621094 L 359.109375 340.609375 C 427.492188 266.515625 519.210938 212.824219 625.605469 192.410156 C 834.128906 152.40625 1037.675781 252.007812 1139.484375 425.492188 L 1095.945312 434.917969 C 1069.03125 440.757812 1062.167969 462.222656 1080.679688 482.601562 L 1293.507812 717.03125 C 1312.003906 737.414062 1334.027344 732.644531 1342.417969 706.445312 L 1439.03125 404.875 C 1447.4375 378.675781 1432.296875 361.992188 1405.410156 367.824219 " fill-opacity="1" fill-rule="nonzero"/></g></g></g><g clip-path="url(#6e760ebe00)"><g clip-path="url(#8d6c70699e)"><g clip-path="url(#3a663a91cc)"><path fill="#51216f" d="M 412.734375 1123.933594 L 495.425781 1107.476562 C 365.949219 1041.160156 267.136719 918.105469 237.667969 764.511719 C 225.355469 700.324219 226.324219 636.613281 238.535156 576.199219 L 278.460938 601.914062 C 301.625 616.800781 321.65625 606.496094 322.984375 579.007812 L 338.25 262.703125 C 339.59375 235.210938 320.667969 223.039062 296.171875 235.625 L 14.648438 380.53125 C -9.863281 393.121094 -10.933594 415.621094 12.214844 430.511719 L 85.679688 477.824219 C 54.621094 578.03125 47 687.03125 68.105469 797.039062 C 114.761719 1040.222656 289.84375 1226.804688 509.53125 1300.066406 L 396.628906 1171.328125 C 378.515625 1150.597656 385.726562 1129.292969 412.734375 1123.933594 " fill-opacity="1" fill-rule="nonzero"/></g></g></g><g clip-path="url(#1a0a7b87de)"><g clip-path="url(#76eccaced9)"><g clip-path="url(#c5da3a41d0)"><path fill="#5c2d90" d="M 1300.878906 755.449219 L 1205.984375 650.90625 C 1216.644531 889.195312 1050.796875 1106.191406 809.78125 1152.429688 C 806.71875 1153.015625 803.667969 1153.476562 800.597656 1154.015625 L 814.851562 1112.027344 C 823.695312 1085.933594 808.863281 1069.03125 781.859375 1074.390625 L 471.265625 1136.105469 C 444.257812 1141.464844 437.03125 1162.773438 455.191406 1183.496094 L 663.914062 1421.597656 C 682.074219 1442.316406 704.152344 1437.921875 713.015625 1411.859375 L 739.609375 1333.503906 C 773.566406 1332.375 807.886719 1328.613281 842.3125 1322.007812 C 1164.867188 1260.128906 1387.875 972.3125 1378.855469 654.09375 L 1349.78125 744.832031 C 1341.394531 771.046875 1319.371094 775.816406 1300.878906 755.449219 " fill-opacity="1" fill-rule="nonzero"/></g></g></g><path fill="#c41414" d="M 559.929688 866.765625 C 550.328125 866.765625 543.921875 863.5625 537.519531 857.160156 L 409.46875 729.109375 C 396.664062 716.304688 396.664062 697.097656 409.46875 684.292969 L 537.519531 556.238281 C 550.328125 543.433594 569.535156 543.433594 582.339844 556.238281 C 595.144531 569.046875 595.144531 588.253906 582.339844 601.058594 L 476.695312 706.699219 L 582.339844 812.34375 C 595.144531 825.148438 595.144531 844.355469 582.339844 857.160156 C 575.9375 863.5625 569.535156 866.765625 559.929688 866.765625 Z M 559.929688 866.765625 " fill-opacity="1" fill-rule="nonzero"/><path fill="#c41414" d="M 880.058594 866.765625 C 870.453125 866.765625 864.050781 863.5625 857.648438 857.160156 C 844.84375 844.355469 844.84375 825.148438 857.648438 812.34375 L 963.292969 706.699219 L 857.648438 601.058594 C 844.84375 588.253906 844.84375 569.046875 857.648438 556.238281 C 870.453125 543.433594 889.664062 543.433594 902.46875 556.238281 L 1030.519531 684.292969 C 1043.324219 697.097656 1043.324219 716.304688 1030.519531 729.109375 L 902.46875 857.160156 C 896.066406 863.5625 889.664062 866.765625 880.058594 866.765625 Z M 880.058594 866.765625 " fill-opacity="1" fill-rule="nonzero"/><g clip-path="url(#79f88ad22d)"><path fill="#c41414" d="M 655.96875 930.789062 C 652.765625 930.789062 649.566406 930.789062 646.363281 927.589844 C 630.359375 921.1875 620.753906 905.179688 627.15625 885.972656 L 755.207031 501.816406 C 761.609375 485.8125 777.617188 476.207031 796.824219 482.609375 C 812.832031 489.011719 822.433594 505.019531 816.03125 524.226562 L 687.980469 908.378906 C 681.578125 921.1875 668.773438 930.789062 655.96875 930.789062 Z M 655.96875 930.789062 " fill-opacity="1" fill-rule="nonzero"/></g></svg>